<svg width="34" height="34" viewBox="0 0 34 34" fill="none" xmlns="http://www.w3.org/2000/svg">
<path d="M16.9998 1.16211C13.1961 1.16211 10.1016 4.25664 10.1016 8.06039C10.1016 11.8641 13.1961 14.9587 16.9998 14.9587C20.8036 14.9587 23.8981 11.8641 23.8981 8.06039C23.8981 4.25664 20.8036 1.16211 16.9998 1.16211ZM19.5817 9.05648H17.9959V10.6423C17.9959 11.1921 17.5497 11.6384 16.9998 11.6384C16.45 11.6384 16.0037 11.1921 16.0037 10.6423V9.05648H14.418C13.8681 9.05648 13.4219 8.61023 13.4219 8.06039C13.4219 7.51055 13.8681 7.0643 14.418 7.0643H16.0037V5.47852C16.0037 4.92867 16.45 4.48242 16.9998 4.48242C17.5497 4.48242 17.9959 4.92867 17.9959 5.47852V7.0643H19.5817C20.1316 7.0643 20.5778 7.51055 20.5778 8.06039C20.5778 8.61023 20.1316 9.05648 19.5817 9.05648Z" fill="#F9CA23"/>
<path d="M1.99219 11.9033C0.891902 11.9033 0 12.7952 0 13.8955V31.9042C0 32.4199 0.418094 32.838 0.933805 32.838H3.05057C3.56628 32.838 3.98438 32.4199 3.98438 31.9042V13.8955C3.98438 12.7953 3.09247 11.9033 1.99219 11.9033Z" fill="#F9CA23"/>
<path d="M32.0078 15.2236C30.9075 15.2236 30.0156 16.1155 30.0156 17.2158V31.9042C30.0156 32.4199 30.4337 32.838 30.9494 32.838H33.0662C33.5819 32.838 34 32.4199 34 31.9042V17.2158C34 16.1156 33.1081 15.2236 32.0078 15.2236Z" fill="#F9CA23"/>
<path d="M5.97656 25.5332H28.0234V29.8496H5.97656V25.5332Z" fill="#F9CA23"/>
<path d="M28.0237 19.2246V23.541H14.9582C14.9582 20.792 15.0026 20.3599 14.7563 19.2246H28.0237Z" fill="#F9CA23"/>
<path d="M12.9658 21.1132V23.541H5.97656V14.2275C7.79105 14.2275 9.35286 14.8373 10.5885 15.9089C12.0827 17.2043 12.9658 19.0889 12.9658 21.1132Z" fill="#F9CA23"/>
</svg>
