<svg xmlns="http://www.w3.org/2000/svg" width="33" height="33" fill="none" viewBox="0 0 33 33"><path fill="#F9CA23" d="M17.875 23.375C17.4171 23.375 16.9868 23.1468 16.731 22.7632L14.3894 19.25H12.375C11.616 19.25 11 18.634 11 17.875C11 17.116 11.616 16.5 12.375 16.5H15.125C15.5842 16.5 16.0132 16.7297 16.269 17.1119L17.7045 19.2652L20.7694 13.134C20.9949 12.6858 21.4445 12.3943 21.9464 12.3751C22.4758 12.3613 22.9199 12.6116 23.1784 13.0406L26.9032 19.25H28.875C29.634 19.25 30.25 19.866 30.25 20.625C30.25 21.384 29.634 22 28.875 22H26.125C25.6424 22 25.1941 21.747 24.9466 21.3332L22.11 16.6059L19.1056 22.616C18.8856 23.0547 18.4498 23.3434 17.9603 23.3737C17.9328 23.375 17.9039 23.375 17.875 23.375Z"/><path fill="#F9CA23" d="M26.125 24.7499C24.6812 24.7499 23.3337 23.9799 22.5913 22.7424L22.33 22.3162L21.56 23.8424C20.9137 25.1624 19.5938 26.0287 18.1362 26.1112L17.875 26.1249C16.4862 26.1249 15.2075 25.4374 14.4375 24.2824L12.9113 21.9999H12.375C10.1062 21.9999 8.25 20.1437 8.25 17.8749C8.25 15.6062 10.1062 13.7499 12.375 13.7499H15.125C15.84 13.7499 16.5275 13.9287 17.1325 14.2724L18.315 11.9074C18.9888 10.5599 20.3363 9.67992 21.8488 9.62492C22.44 9.61117 23.0175 9.70742 23.54 9.92742C20.2813 4.79867 16.1425 0.591172 15.8537 0.302422C15.4688 -0.0825781 14.7812 -0.0825781 14.3963 0.302422C13.915 0.783672 2.75 12.1412 2.75 20.5287C2.75 27.4037 8.305 32.9999 15.125 32.9999C20.4738 32.9999 25.0525 29.5487 26.7712 24.7499H26.125Z"/></svg>