<svg xmlns="http://www.w3.org/2000/svg" width="36" height="36" fill="none" viewBox="0 0 36 36"><g clip-path="url(#clip0)"><path fill="#F9CA23" d="M15.2394 17.7844C14.2366 16.7815 12.6046 16.7815 11.6018 17.7844C10.5989 18.7872 10.5989 20.4192 11.6018 21.422C12.6046 22.4249 14.2366 22.4249 15.2394 21.422C16.2423 20.4191 16.2423 18.7872 15.2394 17.7844ZM14.2474 20.4299C13.7915 20.8858 13.0498 20.8858 12.5939 20.4299C12.138 19.974 12.138 19.2322 12.5939 18.7763C13.0498 18.3204 13.7915 18.3204 14.2474 18.7763C14.7032 19.2322 14.7032 19.974 14.2474 20.4299Z"/><path fill="#F9CA23" d="M18.7115 21.257C17.982 20.5276 16.7953 20.5276 16.0659 21.257C15.7919 21.5309 15.7919 21.9751 16.0659 22.2491C16.3398 22.523 16.784 22.523 17.058 22.2491C17.2403 22.0668 17.5371 22.0668 17.7193 22.2491C17.9016 22.4314 17.9017 22.7282 17.7193 22.9104C17.5886 23.0412 17.4358 23.0517 17.3563 23.0464L14.7906 22.8719C14.4988 22.8521 14.2254 23.0153 14.1044 23.2815C13.9834 23.5477 14.0402 23.861 14.247 24.0679L15.9006 25.7214C16.1745 25.9953 16.6187 25.9953 16.8927 25.7214C17.1667 25.4475 17.1666 25.0033 16.8927 24.7293L16.5619 24.3985L17.2613 24.4461C17.8008 24.4827 18.3292 24.2846 18.7113 23.9025C19.4408 23.1731 19.4408 21.9863 18.7115 21.257Z"/><path fill="#F9CA23" d="M35.2457 2.07611L33.9228 0.753327C33.4365 0.267187 32.7915 0 32.1045 0C32.0986 0 32.0928 0 32.0869 0C31.3934 0.00471093 30.7448 0.280898 30.2609 0.777936C29.6774 1.37693 29.6559 2.32924 30.189 2.9636C29.9526 3.48447 30.0408 4.117 30.4516 4.55512L29.4584 5.54849L29.2931 5.38311C28.6548 4.74503 27.6164 4.74503 26.9781 5.38311L26.5163 5.845C23.3739 4.27717 19.5287 4.89599 16.9907 7.4337L15.0731 9.35147L15.073 9.35154L3.16883 21.2558C3.16855 21.2561 3.16827 21.2563 3.16798 21.2566C3.1677 21.2568 3.16749 21.2571 3.16721 21.2574L1.8452 22.5794C-0.616368 25.041 -0.616368 29.0466 1.8452 31.5082L4.49077 34.1538C5.72159 35.3845 7.33835 35.9999 8.95511 35.9999C10.5719 35.9999 12.1887 35.3845 13.4195 34.1537L28.6316 18.9417C31.2731 16.3 31.7926 12.2105 29.8949 8.99696C29.6979 8.66333 29.2674 8.55273 28.9342 8.74953C28.6007 8.94655 28.4899 9.37665 28.6868 9.71021C30.2591 12.3725 29.8283 15.7607 27.6395 17.9496L26.1513 19.4377L23.9687 17.2551C23.6948 16.9813 23.2506 16.9812 22.9767 17.2552C22.7027 17.5292 22.7027 17.9733 22.9767 18.2473L25.1593 20.4297L14.2463 31.3427L12.0637 29.1602C11.7898 28.8863 11.3456 28.8862 11.0717 29.1602C10.7977 29.4342 10.7977 29.8783 11.0717 30.1523L13.2543 32.3347L12.4276 33.1614C11.5001 34.0889 10.2669 34.5997 8.95526 34.5997C7.64372 34.5997 6.41051 34.0889 5.48302 33.1614L2.83745 30.5158C1.90996 29.5884 1.39907 28.3552 1.39907 27.0435C1.39907 25.732 1.90996 24.4988 2.83745 23.5713L3.66411 22.7446L7.13634 26.217C7.27338 26.3539 7.45289 26.4223 7.63247 26.4223C7.81198 26.4223 7.99155 26.3538 8.12859 26.217C8.40253 25.9429 8.40253 25.4988 8.12859 25.2248L4.65636 21.7525L15.5692 10.8395L19.0414 14.3118C19.1785 14.4488 19.358 14.5172 19.5375 14.5172C19.7171 14.5172 19.8966 14.4487 20.0337 14.3118C20.3076 14.0377 20.3076 13.5936 20.0337 13.3197L16.5614 9.84739L17.9831 8.42574C20.1813 6.22757 23.5553 5.76083 26.2167 7.27592L27.0108 8.06539C27.1476 8.20138 27.3265 8.26937 27.5053 8.26937C27.6855 8.26937 27.8658 8.20032 28.0028 8.06237C28.2759 7.78759 28.2746 7.34342 27.9998 7.07033L27.6365 6.70921L27.9704 6.37529C28.0616 6.28389 28.2099 6.28403 28.3011 6.37522L29.6239 7.69808C29.6901 7.76417 29.6947 7.84159 29.6918 7.88188C29.6621 8.26817 29.9512 8.60539 30.3375 8.63499C30.7248 8.6667 31.061 8.37554 31.0906 7.98931C31.1129 7.69878 31.0566 7.41219 30.9335 7.15583L31.6908 7.91309L31.5254 8.07847C31.2514 8.35241 31.2514 8.79657 31.5254 9.07051C31.7993 9.34444 32.2435 9.34444 32.5175 9.07051L33.8403 7.74772C34.1142 7.47378 34.1142 7.02962 33.8403 6.75561C33.5663 6.48161 33.1222 6.48168 32.8482 6.75561L32.6828 6.92099L31.3766 5.61479L31.444 5.54743C31.8823 5.95834 32.5148 6.04616 33.0355 5.81005C33.3394 6.0655 33.7163 6.19375 34.0924 6.19375C34.5013 6.19375 34.9091 6.04229 35.221 5.7384C35.7181 5.2543 35.9944 4.60581 35.999 3.91232C36.0035 3.21855 35.736 2.56661 35.2457 2.07611ZM34.2419 4.73315C34.1561 4.81689 34.0128 4.81169 33.9228 4.72176L33.7243 4.52333C33.5564 4.35557 33.3333 4.26311 33.096 4.26311C32.8591 4.26311 32.6364 4.35522 32.4687 4.52228L32.5999 4.39108L31.6078 3.39897L31.4766 3.53017C31.6437 3.36234 31.7358 3.13973 31.7358 2.90292C31.7358 2.66561 31.6434 2.44244 31.4755 2.27453L31.2771 2.07618C31.187 1.98618 31.1819 1.84303 31.2658 1.75697C31.4859 1.53091 31.7809 1.40519 32.096 1.40315C32.0988 1.40315 32.1015 1.40315 32.1041 1.40315C32.4162 1.40315 32.7096 1.52458 32.9305 1.74557L34.2534 3.06843C34.4763 3.29132 34.598 3.58762 34.5958 3.90297C34.5938 4.21797 34.4681 4.51279 34.2419 4.73315Z"/></g><defs><clipPath id="clip0"><rect width="36" height="36" fill="#fff"/></clipPath></defs></svg>