<svg width="35" height="35" viewBox="0 0 35 35" fill="none" xmlns="http://www.w3.org/2000/svg">
<path d="M15.4967 4.88364L15.8357 5.06951C16.444 5.40292 16.8638 5.98324 16.9874 6.66173L17.2875 8.30928C17.3028 8.39291 17.3723 8.45599 17.457 8.46307C17.4623 8.46352 17.4676 8.46375 17.4728 8.46375C17.5514 8.46375 17.6226 8.41459 17.6498 8.33961L19.4261 3.42271C19.5785 3.00085 19.5577 2.54488 19.3671 2.13876C19.1765 1.7327 18.8392 1.42519 18.4174 1.27282C18.0033 1.12317 17.5322 1.14493 17.1334 1.33199C16.7274 1.52252 16.4199 1.85985 16.2677 2.28148L15.4101 4.65464C15.3787 4.74189 15.4153 4.83908 15.4967 4.88364Z" fill="#F9CA23"/>
<path d="M18.6751 7.45576C18.6997 7.50266 18.7431 7.53691 18.7945 7.55009L19.2749 7.67422C19.8413 7.82041 20.3258 8.17663 20.6393 8.67693L21.1318 9.46284C21.1664 9.51802 21.2269 9.55107 21.2911 9.55107C21.2978 9.55107 21.3045 9.55069 21.3112 9.55001C21.3828 9.54226 21.4438 9.49453 21.4683 9.42678L24.0615 2.24852C24.214 1.82665 24.193 1.37069 24.0026 0.964564C23.8122 0.558586 23.4748 0.250998 23.0529 0.0984835C22.6388 -0.0511704 22.1672 -0.0293396 21.769 0.157652C21.3628 0.348258 21.0554 0.685506 20.9031 1.10722L18.6646 7.3037C18.6465 7.35384 18.6504 7.40894 18.6751 7.45576Z" fill="#F9CA23"/>
<path d="M20.3083 10.4103C20.3083 9.48438 19.555 8.73106 18.6291 8.73106C17.7031 8.73106 16.9498 9.48438 16.9498 10.4103V16.9145H16.3476V7.59842C16.3476 6.67249 15.5943 5.91925 14.6683 5.91925C13.7425 5.91925 12.9892 6.67249 12.9892 7.59842V16.9145H12.3869V4.91948C12.3869 3.99355 11.6336 3.24023 10.7076 3.24023C9.78168 3.24023 9.02844 3.99355 9.02844 4.91948V16.9145H8.42621V7.59842C8.42621 6.67249 7.6729 5.91925 6.74689 5.91925C5.82096 5.91925 5.06765 6.67249 5.06765 7.59842V18.2305L3.13991 16.0045C2.79514 15.6064 2.37215 15.349 1.94901 15.2797C1.87087 15.2669 1.7922 15.2604 1.71504 15.2604C1.36146 15.2604 1.03121 15.3912 0.733706 15.6491C-0.10121 16.3721 -0.222634 17.3031 0.36469 18.4997L5.07428 27.5038L4.45187 34.7956C4.44736 34.848 4.4652 34.9 4.50065 34.9388C4.53641 34.9777 4.5867 34.9997 4.63939 34.9997H20.7676C20.8204 34.9997 20.8708 34.9775 20.9065 34.9386C20.9423 34.8995 20.9599 34.8475 20.9551 34.7949L20.3082 27.535V10.4103H20.3083Z" fill="#F9CA23"/>
<path d="M29.0511 7.95396C28.637 7.80446 28.1657 7.82614 27.7672 8.01321C27.3615 8.20359 27.0541 8.54061 26.9018 8.96202L24.6916 15.0801L24.1253 14.8753L27.2907 6.11347C27.6051 5.24272 27.1525 4.27833 26.2818 3.96374C26.0982 3.89742 25.9068 3.86377 25.7125 3.86377C25.008 3.86377 24.3731 4.30874 24.1324 4.97119L21.4115 12.5028C21.4041 12.5232 21.4004 12.5449 21.4004 12.5667V26.9528C21.4004 26.9584 21.4006 26.9639 21.4011 26.9694L21.9328 32.956C21.9407 33.0462 22.0122 33.118 22.1024 33.1267C22.1085 33.1272 22.1145 33.1275 22.1204 33.1275C22.2035 33.1275 22.2779 33.0726 22.3011 32.9911L24.2431 26.2064L30.0603 10.1037C30.3747 9.23317 29.9221 8.2687 29.0511 7.95396Z" fill="#F9CA23"/>
</svg>
