<svg xmlns="http://www.w3.org/2000/svg" width="24" height="23" fill="none" viewBox="0 0 24 23"><path fill="#F9CA23" d="M11.6424 1.99162C6.62523 -2.58387 0.246039 1.43629 0.141434 6.88626C0.114777 8.27521 0.499302 9.62815 1.26471 10.8754H6.22587L7.1083 9.34191C7.36453 8.89667 7.9846 8.88233 8.25535 9.3262L10.1172 12.3767L12.8311 6.40293C13.0678 5.88167 13.7731 5.86512 14.0342 6.37059L16.3606 10.8754H22.02C26.2124 4.04347 17.9268 -3.73958 11.6424 1.99162Z"/><path fill="#F9CA23" d="M15.3638 12.6504L13.4787 9L10.8129 14.8678C10.5861 15.3671 9.91907 15.4104 9.63466 14.9443L7.70304 11.7794L7.1855 12.6788C7.06363 12.8906 6.84417 13.0201 6.60732 13.0201H2.33105C2.4651 13.1664 1.75067 12.423 11.1664 22.1898C11.4294 22.4626 11.8545 22.4626 12.1175 22.1898C21.3884 12.5732 20.8191 13.1661 20.9529 13.0201H15.9575C15.7094 13.0202 15.4814 12.8781 15.3638 12.6504Z"/></svg>