<svg width="36" height="24" viewBox="0 0 36 24" fill="none" xmlns="http://www.w3.org/2000/svg">
<path d="M34.8711 3.80637C34.53 3.61548 34.143 3.52004 33.7515 3.53024C33.3599 3.54044 32.9785 3.65589 32.6479 3.86427L30.872 4.96559C29.0921 4.32512 27.2996 3.61125 25.5397 2.84026C24.0888 2.20459 23.0303 1.69332 22.1798 1.28249C20.3091 0.37895 19.4548 -0.0344533 17.9859 0.00224092C16.5516 0.0371214 15.7185 0.480034 14.3383 1.21329C13.525 1.64539 12.5128 2.18297 11.0215 2.84053C9.11302 3.68142 7.15008 4.39496 5.14579 4.9764L3.35206 3.86427C3.02147 3.65589 2.64006 3.54044 2.24853 3.53024C1.85699 3.52004 1.47001 3.61548 1.12885 3.80637C0.784874 3.99222 0.498196 4.26723 0.299399 4.60206C0.100602 4.93688 -0.00285655 5.31897 6.00021e-05 5.70757V12.2802C-0.00111923 12.6491 0.0928883 13.0121 0.273133 13.3348C0.453378 13.6574 0.713861 13.9289 1.02978 14.1235L4.50004 16.2754V16.8508C4.49923 17.2592 4.58912 17.6627 4.76332 18.0328C4.93753 18.4028 5.19177 18.7302 5.50797 18.9917C11.4891 23.9427 17.9356 24 18 24C23.6698 24 27.9581 21.263 30.5572 18.9669C30.8536 18.705 31.0907 18.3838 31.2532 18.0246C31.4157 17.6653 31.4998 17.2761 31.5 16.8823V16.4961L34.9701 14.3442C35.2861 14.1497 35.5466 13.8782 35.7269 13.5555C35.9071 13.2329 36.0011 12.8698 35.9999 12.5009V5.70757C36.0029 5.31897 35.8994 4.93688 35.7006 4.60206C35.5018 4.26723 35.2151 3.99222 34.8711 3.80637ZM8.63005 13.9881C11.6325 15.075 14.804 15.6303 18 15.6287C21.196 15.6304 24.3675 15.0751 27.37 13.9881L27.7551 15.0368C24.6292 16.1685 21.3274 16.7466 18 16.7449C14.6726 16.7466 11.3708 16.1685 8.24502 15.0369L8.63005 13.9881ZM8.24495 10.014L8.63005 8.96533C11.6325 10.0522 14.804 10.6075 18 10.6059C21.196 10.6076 24.3675 10.0523 27.37 8.96533L27.7551 10.014C24.6292 11.1457 21.3274 11.7238 18 11.7221C14.6726 11.7238 11.3707 11.1456 8.24495 10.014ZM1.62603 13.1769C1.47234 13.0822 1.34561 12.9502 1.25792 12.7932C1.17023 12.6362 1.12449 12.4596 1.12506 12.2802V5.70757C1.12507 5.51881 1.176 5.33349 1.27258 5.17085C1.36915 5.00821 1.50784 4.87419 1.67424 4.78268C1.84065 4.69118 2.02871 4.64554 2.2189 4.65049C2.40909 4.65545 2.59447 4.71082 2.75581 4.81086L4.50004 5.89244V14.959L1.62603 13.1769ZM34.8749 12.5009C34.8755 12.6804 34.8298 12.857 34.7421 13.0139C34.6544 13.1709 34.5277 13.303 34.374 13.3976L31.5 15.1798V5.89244L33.2442 4.81114C33.4055 4.71111 33.5909 4.65574 33.781 4.65077C33.9712 4.64581 34.1592 4.69143 34.3256 4.7829C34.492 4.87437 34.6307 5.00835 34.7273 5.17095C34.8239 5.33355 34.8749 5.51883 34.8749 5.70757V12.5009Z" fill="#F9CA23"/>
</svg>
