<svg width="32" height="32" viewBox="0 0 32 32" fill="none" xmlns="http://www.w3.org/2000/svg">
<g clip-path="url(#clip0)">
<path d="M16.0001 0C20.3229 0 23.4836 1.44842 23.8204 2.80702C23.8182 2.84816 23.8182 2.88939 23.8204 2.93053C23.7025 3.7614 23.3488 6.29895 19.8008 7.29825C18.8229 7.57411 17.9899 8.21797 17.4766 9.09474C17.277 8.41494 17.006 7.75818 16.6681 7.13544C17.5947 5.64714 18.6891 4.27016 19.9299 3.03158C20.2487 2.70642 20.3396 2.22089 20.1599 1.80244C19.9802 1.384 19.5656 1.11553 19.1102 1.12281H12.8899C12.437 1.1178 12.0254 1.38542 11.8462 1.80142C11.6671 2.21741 11.7554 2.70032 12.0702 3.02596C13.193 4.19368 15.6351 6.89404 16.3481 9.36983C15.259 8.50526 13.4962 7.81474 11.0597 7.29825C8.46603 6.73684 7.52287 5.20421 8.11234 2.93614C8.1133 2.91931 8.1133 2.90244 8.11234 2.88561C8.36497 1.49895 11.5818 0 16.0001 0V0ZM19.1102 2.24561C17.9533 3.41934 16.9118 4.70148 16.0001 6.07439C15.0902 4.70013 14.0485 3.41781 12.8899 2.24561H19.1102ZM5.42322 28.2386C5.32217 27.9916 5.39515 28.0253 5.90041 26.1109C9.0162 14.1754 7.05129 9.53825 6.96146 9.34175C6.83396 9.0632 6.5067 8.93829 6.22603 9.06105C5.94314 9.18431 5.81275 9.51278 5.9341 9.79649C5.9341 9.8414 7.7755 14.2877 4.90111 25.5158C2.6555 25.8526 1.74041 24.6681 1.43164 24.1347C2.61112 19.5385 3.53881 14.8813 4.21059 10.1839C4.87866 5.50175 6.10813 4.00842 6.8548 3.56491C6.59655 5.85544 7.80918 7.78105 10.8408 8.40982C12.772 8.81403 16.5671 9.83018 16.5671 11.7782V30.4842C8.26954 33.4035 5.94532 29.5186 5.42322 28.2386ZM26.6667 25.3811C23.6857 13.9284 25.9987 9.87509 26.0211 9.8414C26.1274 9.67092 26.1347 9.45667 26.0402 9.27937C25.9457 9.10207 25.7638 8.98864 25.563 8.98183C25.3622 8.97501 25.173 9.07583 25.0667 9.24632C24.9601 9.42035 22.4001 13.7375 25.6618 25.9874C25.7966 26.4982 25.9369 27.0204 26.0941 27.5537C26.038 27.9916 25.6899 29.9396 24.0787 30.9221C22.5966 31.8091 20.4464 31.6632 17.6843 30.5123V12.9123H18.9081C19.1816 13.6856 19.9724 14.1495 20.7808 14.0108C21.5893 13.8721 22.1802 13.1711 22.1802 12.3509C22.1802 11.5306 21.5893 10.8296 20.7808 10.6909C19.9724 10.5522 19.1816 11.0161 18.9081 11.7895H17.6843C17.9987 9.90316 18.8071 8.76351 20.0702 8.42105C22.6808 7.67439 24.3762 6.05193 24.8478 3.44702C25.5215 3.69965 27.0204 4.85614 27.7839 10.1839C28.4599 14.8634 29.3857 19.5035 30.5573 24.0842C30.2204 24.7018 29.1762 25.9425 26.6667 25.3811ZM19.9299 12.3509C19.9299 12.0408 20.1812 11.7895 20.4913 11.7895C20.8013 11.7895 21.0527 12.0408 21.0527 12.3509C21.0527 12.6609 20.8013 12.9123 20.4913 12.9123C20.1812 12.9123 19.9299 12.6609 19.9299 12.3509Z" fill="#F9CA23"/>
</g>
<defs>
<clipPath id="clip0">
<rect width="32" height="32" fill="white"/>
</clipPath>
</defs>
</svg>
