<svg width="35" height="14" viewBox="0 0 35 14" fill="none" xmlns="http://www.w3.org/2000/svg">
<path d="M7.218 13.216C10.944 13.216 13.752 10.444 13.752 6.79C13.752 3.136 10.944 0.364 7.218 0.364C3.51 0.364 0.702 3.136 0.702 6.79C0.702 10.444 3.51 13.216 7.218 13.216ZM7.218 11.146C4.77 11.146 2.898 9.274 2.898 6.79C2.898 4.306 4.77 2.434 7.218 2.434C9.684 2.434 11.556 4.306 11.556 6.79C11.556 9.274 9.684 11.146 7.218 11.146ZM16.7372 11.768L18.7612 9.623C19.2672 9.084 19.7402 8.435 19.7402 7.522C19.7402 6.224 18.7392 5.278 17.2982 5.278C16.2092 5.278 15.2522 5.839 14.7352 6.664L15.6372 7.511C16.0442 6.95 16.5832 6.587 17.2212 6.587C17.8922 6.587 18.3872 6.994 18.3872 7.599C18.3872 8.105 18.0022 8.578 17.6172 9.018L14.9002 11.944V13H19.8942V11.768H16.7372ZM24.1447 6.286C25.8547 6.286 27.1507 5.008 27.1507 3.316C27.1507 1.642 25.8547 0.364 24.1447 0.364C22.4167 0.364 21.1207 1.642 21.1207 3.316C21.1207 5.008 22.4167 6.286 24.1447 6.286ZM22.4347 13H24.5947L33.5947 0.579999H31.4347L22.4347 13ZM24.1447 4.666C23.3887 4.666 22.8127 4.072 22.8127 3.316C22.8127 2.56 23.3887 2.002 24.1447 2.002C24.8827 2.002 25.4587 2.56 25.4587 3.316C25.4587 4.072 24.8827 4.666 24.1447 4.666ZM31.8667 13.216C33.5767 13.216 34.8727 11.938 34.8727 10.246C34.8727 8.554 33.5767 7.294 31.8667 7.294C30.1567 7.294 28.8607 8.554 28.8607 10.246C28.8607 11.938 30.1567 13.216 31.8667 13.216ZM31.8667 11.578C31.1107 11.578 30.5527 11.002 30.5527 10.246C30.5527 9.49 31.1107 8.914 31.8667 8.914C32.6227 8.914 33.1987 9.49 33.1987 10.246C33.1987 11.002 32.6227 11.578 31.8667 11.578Z" fill="#F9CA23"/>
</svg>
