<svg xmlns="http://www.w3.org/2000/svg" width="35" height="35" fill="none" viewBox="0 0 35 35"><path fill="#4A2C81" d="M0 34.9995H15.909V19.0903H0V34.9995ZM3.18156 22.2724H12.7271V31.7932H3.18156V22.2724Z"/><path fill="#4A2C81" d="M9.546 25.4541H6.36426V28.6363H9.546V25.4541Z"/><path fill="#4A2C81" d="M28.6366 31.8179H25.4541V34.9997H28.6366V31.8179Z"/><path fill="#4A2C81" d="M34.9998 31.8179H31.8174V34.9997H34.9998V31.8179Z"/><path fill="#4A2C81" d="M31.8182 22.2724H28.6366V19.0903H19.0908V34.9995H22.2729V25.454H25.4542V28.6362H35V19.0903H31.8182V22.2724Z"/><path fill="#4A2C81" d="M0 15.9094H15.909V0H0V15.9094ZM3.18156 3.18156H12.7271V12.7271H3.18156V3.18156Z"/><path fill="#4A2C81" d="M9.546 6.36328H6.36426V9.54529H9.546V6.36328Z"/><path fill="#4A2C81" d="M19.0908 0V15.9094H35.0003V0H19.0908ZM31.8182 12.7271H22.2729V3.18156H31.8182V12.7271Z"/><path fill="#4A2C81" d="M28.6366 6.36328H25.4541V9.54529H28.6366V6.36328Z"/></svg>