<svg width="34" height="34" viewBox="0 0 34 34" fill="none" xmlns="http://www.w3.org/2000/svg">
<g clip-path="url(#clip0)">
<path d="M29.6294 4.36991C28.0303 2.76989 25.9031 1.88867 23.6406 1.88867C21.3779 1.88867 19.2514 2.76989 17.6517 4.36991L10.0663 11.955L2.48075 19.5411C0.881223 21.1411 0 23.2683 0 25.5303C0 27.7923 0.881223 29.9195 2.48075 31.5185C4.07979 33.1186 6.20702 33.9998 8.46949 33.9998C10.732 33.9998 12.8587 33.1186 14.4582 31.5185L22.0438 23.9335L29.6294 16.3474C31.2289 14.7474 32.1099 12.6201 32.1099 10.3582C32.1099 8.09619 31.2289 5.96895 29.6294 4.36991ZM12.8614 29.9217C11.6879 31.095 10.1281 31.7415 8.46949 31.7415C6.81019 31.7415 5.25083 31.0952 4.07759 29.9217C2.90434 28.7482 2.25855 27.1891 2.25855 25.5305C2.25855 23.872 2.90483 22.3114 4.07759 21.1381L10.8647 14.3505L19.6486 23.1353L12.8614 29.9217ZM28.0325 14.7506L21.2454 21.5382L12.4616 12.7534L19.2487 5.96675C20.422 4.7935 21.9818 4.14697 23.6406 4.14697C25.2997 4.14697 26.8591 4.79325 28.0323 5.96675C29.2055 7.14024 29.8513 8.69935 29.8513 10.3579C29.8513 12.0165 29.2053 13.5771 28.0325 14.7506Z" fill="#F9CA23"/>
<path d="M26.6604 9.50303C26.3002 9.50303 25.9462 9.33105 25.7275 9.01232C25.199 8.24036 24.3274 7.78052 23.3949 7.78052C22.6406 7.78052 21.9321 8.07377 21.3983 8.6076C20.957 9.04858 20.2424 9.04858 19.8014 8.6076C19.3605 8.16638 19.3605 7.45175 19.8014 7.01077C20.7615 6.05017 22.0374 5.52197 23.3949 5.52197C25.0729 5.52197 26.6415 6.34905 27.5911 7.73544C27.9434 8.25016 27.8123 8.95279 27.2973 9.30582C27.1026 9.43909 26.8804 9.50303 26.6604 9.50303Z" fill="#F9CA23"/>
</g>
<defs>
<clipPath id="clip0">
<rect width="32.1111" height="32.1111" fill="white" transform="translate(0 1.88867)"/>
</clipPath>
</defs>
</svg>
