<svg width="39" height="39" viewBox="0 0 39 39" fill="none" xmlns="http://www.w3.org/2000/svg">
<path d="M30.7612 1.89114C28.4963 -0.373801 24.9534 -0.601073 22.4322 1.2097C21.3421 0.423878 20.0371 0 18.6669 0C16.9423 0 15.3209 0.671618 14.1014 1.89114C11.584 4.40857 11.584 8.50475 14.1014 11.0221L21.6301 18.5509C21.8425 18.7633 22.1308 18.8827 22.4312 18.8827C22.7317 18.8827 23.0199 18.7633 23.2323 18.5509L30.761 11.0221C31.9806 9.80259 32.6522 8.18125 32.6522 6.45659C32.6523 4.73199 31.9807 3.11058 30.7612 1.89114Z" fill="#4A2C81"/>
<path d="M37.5276 25.1672L29.1011 32.7335C27.9905 33.7308 26.5568 34.2799 25.0642 34.2799H14.3375L8.04673 38.6977C7.85602 38.8316 7.62867 38.9035 7.39558 38.9035H1.13296C0.507264 38.9035 0 38.3963 0 37.7706V29.6271C0 29.2775 0.161409 28.9475 0.437398 28.7328L7.46175 23.2695C8.98641 22.0836 10.8629 21.4397 12.7945 21.4397H23.6919C25.2562 21.4397 26.5243 22.7078 26.5243 24.2721C26.5243 25.8364 25.2562 27.1045 23.6919 27.1045H18.3922C17.7665 27.1045 17.2592 27.6118 17.2592 28.2375C17.2592 28.8632 17.7665 29.3704 18.3922 29.3704H23.6919C26.2728 29.3704 28.4105 27.4423 28.7436 24.9511L33.5477 20.7016C34.5497 19.8151 36.0335 19.7043 37.1563 20.4321C37.9439 20.9427 38.4378 21.7722 38.5112 22.708C38.5846 23.6437 38.2261 24.5401 37.5276 25.1672Z" fill="#4A2C81"/>
</svg>
