<svg xmlns="http://www.w3.org/2000/svg" width="26" height="34" fill="none" viewBox="0 0 26 34"><g clip-path="url(#clip0)"><path fill="#F9CA23" d="M26 32.9852H24.9945L24.9814 22.8567C24.9778 22.2225 24.5228 21.6819 23.9007 21.5737C23.5035 21.5017 23.0948 21.6107 22.7844 21.8708L21.2993 23.1161C21.2798 23.1328 21.2609 23.1502 21.2421 23.1677C20.837 22.4085 20.8146 21.3434 21.2154 20.3495C21.5619 19.49 22.1804 18.8027 22.885 18.4678C22.9233 18.5811 22.9667 18.693 23.0152 18.8027L23.0941 18.9792C23.4681 19.7937 24.1133 20.4519 24.9185 20.8384C25.5761 21.1588 25.9928 21.8287 25.9899 22.5632L26 32.9852Z"/><path fill="#F9CA23" d="M22.5651 15.0507C21.608 15.3275 19.393 16.0446 17.9035 18.533C16.7836 20.4045 16.4892 22.534 17.0253 24.8683L16.4632 24.8574C16.4212 24.0618 16.38 23.2627 16.3431 22.4962C16.3431 22.4911 16.3424 22.4867 16.3416 22.4816C16.244 21.288 16.4364 20.0892 16.903 18.987L16.9254 18.9333C17.643 17.263 18.9546 15.9218 20.6039 15.1699L22.5246 14.2915L22.5651 15.0507Z"/><path fill="#F9CA23" d="M20.4102 20.0223C19.8633 21.3802 19.9711 22.8761 20.6583 23.8795C20.5997 23.9427 20.5324 23.9979 20.4594 24.0444C19.9537 24.3198 19.388 24.4963 19.0126 24.6133L18.9634 24.6285C18.6212 24.7353 18.2689 24.808 17.9123 24.8443C17.374 22.6684 17.6207 20.6973 18.6472 18.9827C19.8727 16.9353 21.674 16.235 22.613 15.9458L22.6947 17.4722C22.6969 17.5136 22.7005 17.5543 22.7041 17.595C21.7159 17.9895 20.8746 18.8708 20.4102 20.0223Z"/><path fill="#F9CA23" d="M14.7423 33.8799L0 33.6241C1.29273 31.8536 2.72218 30.1884 4.27606 28.6445C6.00718 29.3776 10.6609 31.4228 14.7423 33.8799Z"/><path fill="#F9CA23" d="M21.6927 33.9998L16.4379 33.909C11.9267 31.0029 6.22411 28.5182 4.45682 27.7749C3.86218 26.6488 4.08933 25.2619 5.01312 24.3871L5.06738 24.3348C5.12381 24.2811 5.16432 24.2135 5.18602 24.1387C7.44884 25.0904 18.1488 29.7395 21.6927 33.9998Z"/><path fill="#F9CA23" d="M22.4702 13.3593L20.2443 14.3771C18.3982 15.2177 16.9311 16.7195 16.1281 18.5888L16.1043 18.6447C15.6565 19.7011 15.4337 20.8396 15.4503 21.9868C14.2885 21.7681 12.744 21.4535 10.5601 20.3724C12.1711 19.0131 13.288 17.3523 13.887 15.4212C13.9499 15.2177 13.9977 15.0099 14.0317 14.8C14.0331 14.7898 14.0346 14.7796 14.0353 14.7695L14.4715 9.70629C14.7204 8.07161 15.7324 6.65415 17.1937 5.89275L19.6461 4.62061L21.9704 9.6133C22.0109 9.76078 21.966 9.91916 21.8532 10.0231L20.7276 11.0678C20.5518 11.2313 20.5409 11.5074 20.7037 11.6839C20.7218 11.7035 20.742 11.7217 20.7637 11.7384L22.055 12.7003C22.2699 12.8609 22.4174 13.0955 22.4702 13.3593Z"/><path fill="#F9CA23" d="M15.7813 28.4154C12.0015 26.1922 7.8925 24.3512 6.06445 23.5658C6.52743 23.2534 7.20527 22.7812 8.20936 22.0786C8.66366 21.7604 9.13966 21.4269 9.61638 21.0956C9.6786 21.0528 9.74009 21.0092 9.80085 20.9648C12.3784 22.2987 14.1341 22.6279 15.4261 22.8698L15.4926 22.8821C15.5411 23.8651 15.5961 24.8917 15.6489 25.8885C15.6937 26.724 15.7393 27.5813 15.7813 28.4154Z"/><path fill="#F9CA23" d="M18.0166 0C17.9977 0 17.9789 0.000726527 17.9594 0.000726527L9.034 0.209966C6.2185 0.27608 3.64678 1.71315 2.15512 4.05547C2.09073 4.15573 2.0278 4.2589 1.96775 4.36207C0.539022 6.81409 0.630895 9.22035 0.813917 10.4358C0.815364 10.4489 0.81681 10.4613 0.817534 10.4743L1.01864 13.7786C1.23277 17.2942 2.69695 20.7053 5.05092 23.1907C5.5262 22.8943 6.67786 22.0879 7.71306 21.3628C8.16808 21.0446 8.64481 20.7104 9.12226 20.3791C11.1116 18.9958 12.3993 17.2892 13.0583 15.1619C13.1075 15.0035 13.1458 14.8422 13.1726 14.678L13.6088 9.61703C13.6096 9.60832 13.6103 9.5996 13.6117 9.59015C13.8989 7.67358 15.0831 6.01056 16.7962 5.11838L20.1701 3.36818C20.3083 3.06158 20.3807 2.72883 20.3814 2.39245C20.3864 1.07599 19.3274 0.00508569 18.0166 0ZM4.02802 5.57391C3.87827 5.83183 3.74589 6.09847 3.63231 6.37309C3.51802 6.64772 3.4218 6.93034 3.34512 7.21804C3.28291 7.45053 3.04491 7.58785 2.81342 7.52536C2.58193 7.46288 2.44448 7.22386 2.50669 6.99137C2.68103 6.3404 2.94001 5.71559 3.27929 5.13364C3.4001 4.92585 3.66559 4.8561 3.87248 4.97744H3.87321C4.0801 5.09949 4.14955 5.36613 4.02802 5.57391ZM9.0897 2.60678C7.41501 2.6402 5.83003 3.36963 4.71164 4.62216C4.71091 4.62362 4.70947 4.62434 4.70802 4.6258C4.54815 4.80525 4.27398 4.8205 4.09529 4.65922C3.91661 4.49865 3.90214 4.2233 4.06202 4.04385C5.34028 2.61041 7.15386 1.77418 9.06945 1.73567C9.3089 1.72986 9.50783 1.92021 9.51362 2.16142C9.51868 2.4019 9.32915 2.60169 9.0897 2.60678ZM14.7598 2.39826L10.6009 2.49562H10.5908C10.3506 2.49853 10.1538 2.30527 10.1517 2.06479C10.1488 1.82431 10.3405 1.62669 10.5806 1.62379L14.7395 1.52643C14.979 1.52062 15.1779 1.71097 15.1837 1.95218C15.1895 2.19266 14.9992 2.39245 14.7598 2.39826Z"/><path fill="#F9CA23" d="M4.02799 5.57405C3.87825 5.83197 3.74586 6.0986 3.63229 6.37323C3.51799 6.64786 3.42178 6.93048 3.34509 7.21818C3.28288 7.45067 3.04488 7.58798 2.81339 7.5255C2.5819 7.46302 2.44445 7.22399 2.50666 6.9915C2.68101 6.34054 2.93999 5.71572 3.27926 5.13377C3.40007 4.92599 3.66556 4.85624 3.87246 4.97757H3.87318C4.08008 5.09963 4.14952 5.36626 4.02799 5.57405Z"/><path fill="#F9CA23" d="M9.51324 2.16123C9.5183 2.40171 9.32877 2.6015 9.08932 2.60659C7.41463 2.64001 5.82964 3.36944 4.71125 4.62197C4.71053 4.62343 4.70908 4.62415 4.70764 4.62561C4.54776 4.80506 4.27359 4.82031 4.09491 4.65903C3.91623 4.49846 3.90176 4.22311 4.06163 4.04366C5.3399 2.61022 7.15348 1.77399 9.06906 1.73548C9.30851 1.72967 9.50745 1.92002 9.51324 2.16123Z"/><path fill="#F9CA23" d="M15.1839 1.95224C15.1897 2.19272 14.9994 2.39252 14.76 2.39833L10.6011 2.49568H10.591C10.3508 2.49859 10.1541 2.30533 10.1519 2.06485C10.149 1.82437 10.3407 1.62676 10.5809 1.62385L14.7397 1.5265C14.9792 1.52068 15.1781 1.71103 15.1839 1.95224Z"/></g><defs><clipPath id="clip0"><rect width="26" height="34" fill="#fff"/></clipPath></defs></svg>