<svg xmlns="http://www.w3.org/2000/svg" width="36" height="36" fill="none" viewBox="0 0 36 36"><path fill="#4A2C81" d="M18 0C8.07448 0 0 8.07448 0 18C0 27.9255 8.07448 36 18 36C27.9255 36 36 27.9255 36 18C36 8.07448 27.9255 0 18 0ZM23.5605 19.0605L16.0605 26.5605C15.768 26.853 15.384 27 15 27C14.616 27 14.232 26.853 13.9395 26.5605C13.353 25.974 13.353 25.026 13.9395 24.4395L20.379 18L13.9395 11.5605C13.353 10.974 13.353 10.026 13.9395 9.43952C14.526 8.85305 15.474 8.85305 16.0605 9.43952L23.5605 16.9395C24.147 17.526 24.147 18.474 23.5605 19.0605Z"/></svg>