<svg width="36" height="36" viewBox="0 0 36 36" fill="none" xmlns="http://www.w3.org/2000/svg">
<g clip-path="url(#clip0)">
<path d="M12.9889 8.86756L12.9889 8.86758C13.2936 9.18622 13.689 9.65414 14.168 10.274C15.175 11.5774 16.3177 13.2462 17.379 14.969L17.379 14.969C18.2169 16.3292 19.3252 18.2496 20.2191 20.2147C21.1371 22.2328 21.7312 24.0921 21.7312 25.3963C21.7312 30.4148 17.646 34.5 12.6276 34.5C7.60912 34.5 3.52393 30.4148 3.52393 25.3963C3.52393 24.092 4.1181 22.2328 5.03608 20.2147C5.92998 18.2496 7.03819 16.3292 7.8761 14.9691C8.93753 13.2461 10.0802 11.5773 11.0872 10.2741L11.0873 10.274C11.5662 9.65418 11.9616 9.18624 12.2663 8.86757C12.4344 8.69179 12.5488 8.58743 12.6276 8.52517C12.7065 8.58743 12.8209 8.69179 12.9889 8.86756Z" stroke="#F9CA23" stroke-width="3"/>
<path d="M25.5007 4.8512L25.5006 4.85124C24.9488 5.74708 24.3613 6.79187 23.9163 7.80485C23.4547 8.85584 23.2192 9.7128 23.2192 10.2821C23.2192 12.8329 25.2969 14.9105 27.8476 14.9105C30.3984 14.9105 32.4761 12.8329 32.4761 10.2821C32.4761 9.71276 32.2406 8.8558 31.779 7.80482C31.334 6.79185 30.7465 5.74709 30.1947 4.85124L31.445 4.08095L30.1947 4.85124C29.6324 3.93856 29.0287 3.05764 28.5011 2.37483L25.5007 4.8512ZM25.5007 4.8512C26.0629 3.93849 26.6666 3.05763 27.1942 2.37478C27.5062 1.97095 27.7108 1.73646 27.8476 1.59977M25.5007 4.8512L27.8476 1.59977M27.8476 1.59977C27.9845 1.73646 28.189 1.97095 28.5011 2.37477L27.8476 1.59977Z" stroke="#F9CA23" stroke-width="3"/>
</g>
<defs>
<clipPath id="clip0">
<rect width="36" height="36" fill="white"/>
</clipPath>
</defs>
</svg>
