<svg width="39" height="39" viewBox="0 0 39 39" fill="none" xmlns="http://www.w3.org/2000/svg">
<path d="M27.625 34.125V30.875C27.625 29.1511 26.9402 27.4978 25.7212 26.2788C24.5022 25.0598 22.8489 24.375 21.125 24.375H8.125C6.40109 24.375 4.74779 25.0598 3.52881 26.2788C2.30982 27.4978 1.625 29.1511 1.625 30.875V34.125" stroke="#F9CA23" stroke-width="2" stroke-linecap="round" stroke-linejoin="round"/>
<path d="M14.625 17.875C18.2149 17.875 21.125 14.9649 21.125 11.375C21.125 7.78515 18.2149 4.875 14.625 4.875C11.0351 4.875 8.125 7.78515 8.125 11.375C8.125 14.9649 11.0351 17.875 14.625 17.875Z" stroke="#F9CA23" stroke-width="2" stroke-linecap="round" stroke-linejoin="round"/>
<path d="M37.375 34.1247V30.8747C37.3739 29.4345 36.8946 28.0354 36.0122 26.8972C35.1299 25.759 33.8945 24.946 32.5 24.5859" stroke="#F9CA23" stroke-width="2" stroke-linecap="round" stroke-linejoin="round"/>
<path d="M26 5.08594C27.3982 5.44393 28.6374 6.25708 29.5224 7.39719C30.4074 8.53731 30.8877 9.93954 30.8877 11.3828C30.8877 12.8261 30.4074 14.2283 29.5224 15.3684C28.6374 16.5085 27.3982 17.3217 26 17.6797" stroke="#F9CA23" stroke-width="2" stroke-linecap="round" stroke-linejoin="round"/>
</svg>
