<svg width="40" height="40" viewBox="0 0 40 40" fill="none" xmlns="http://www.w3.org/2000/svg">
<g clip-path="url(#clip0)">
<path d="M6.02767 23.7551C5.74018 24.0426 5.62201 24.4584 5.71546 24.8542L7.19631 31.1279L0.343601 37.9805C-0.114534 38.4386 -0.114534 39.1814 0.343601 39.6395C0.572669 39.8686 0.872904 39.9832 1.17306 39.9832C1.47322 39.9832 1.77353 39.8686 2.00252 39.6395L8.83013 32.8119L15.1343 34.2689C15.222 34.2892 15.3105 34.2991 15.3985 34.2991C15.7061 34.2991 16.0055 34.178 16.2279 33.9555L29.9355 20.2481L31.4718 21.7844C31.7008 22.0135 32.0011 22.128 32.3012 22.128C32.6014 22.128 32.9017 22.0135 33.1307 21.7844C33.5888 21.3263 33.5888 20.5835 33.1307 20.1254L31.5944 18.5891L36.8749 13.3087C37.0949 13.0887 37.2185 12.7903 37.2185 12.4792C37.2185 12.1681 37.095 11.8697 36.8749 11.6497L33.4336 8.20848L35.1544 6.48778L37.9974 9.33083C38.2265 9.55989 38.5267 9.67447 38.8269 9.67447C39.127 9.67447 39.4273 9.55989 39.6563 9.33083C40.1145 8.87277 40.1145 8.12996 39.6563 7.67183L32.3443 0.359656C31.8862 -0.0984009 31.1434 -0.0984009 30.6853 0.359656C30.2272 0.817713 30.2272 1.56052 30.6853 2.01865L33.4954 4.82878L31.7747 6.5494L28.3336 3.10823C27.8755 2.65017 27.1327 2.65017 26.6746 3.10823L21.3941 8.38867L19.8578 6.85238C19.3997 6.39432 18.6569 6.3944 18.1988 6.85238C17.7407 7.31043 17.7407 8.05324 18.1988 8.51138L19.7351 10.0477L6.02767 23.7551ZM15.029 31.8365L9.47103 30.5519L8.14918 24.9517L10.2984 22.8025L11.5975 24.1016C11.8265 24.3306 12.1268 24.4452 12.4269 24.4452C12.7271 24.4452 13.0274 24.3306 13.2564 24.1016C13.7145 23.6435 13.7145 22.9007 13.2564 22.4426L11.9573 21.1435L14.1336 18.9671L16.3663 21.1997C16.5954 21.4288 16.8956 21.5434 17.1957 21.5434C17.4959 21.5434 17.7962 21.4288 18.0252 21.1997C18.4833 20.7417 18.4833 19.9988 18.0252 19.5407L15.7926 17.3081L17.9689 15.1317L19.2679 16.4308C19.497 16.66 19.7972 16.7745 20.0974 16.7745C20.3977 16.7745 20.6979 16.6599 20.9269 16.4308C21.385 15.9728 21.385 15.23 20.9269 14.7718L19.6278 13.4727L21.394 11.7066L28.2764 18.589L15.029 31.8365ZM29.9355 16.9301L23.053 10.0477L27.504 5.59669L34.3864 12.4791L29.9355 16.9301Z" fill="#F9CA23"/>
</g>
<defs>
<clipPath id="clip0">
<rect width="40" height="40" fill="white"/>
</clipPath>
</defs>
</svg>
