<svg width="296" height="225" viewBox="0 0 296 225" fill="none" xmlns="http://www.w3.org/2000/svg">
<path d="M291.341 9.65112e-10H85.2585C84.1294 0.000971111 83.0468 0.450521 82.2484 1.24996C81.45 2.0494 81.001 3.13339 81 4.26398V205.395C81.001 206.525 81.45 207.609 82.2484 208.409C83.0468 209.208 84.1294 209.658 85.2585 209.659H103.327V208.441H85.2585C84.4519 208.44 83.6786 208.119 83.1082 207.548C82.5379 206.977 82.217 206.202 82.2161 205.395V4.26398C82.217 3.45631 82.5379 2.68199 83.1082 2.11088C83.6786 1.53978 84.4519 1.21852 85.2585 1.21758H291.341C292.148 1.21752 292.923 1.5383 293.494 2.10948C294.065 2.68066 294.387 3.45555 294.388 4.26398V205.395C294.389 205.99 294.214 206.571 293.885 207.067C293.593 207.503 293.197 207.86 292.733 208.104C292.303 208.326 291.825 208.442 291.341 208.441H273.272V209.659H291.341C291.957 209.659 292.565 209.525 293.124 209.267C293.683 209.008 294.179 208.632 294.579 208.163C294.613 208.126 294.644 208.087 294.671 208.045C294.926 207.734 295.131 207.386 295.282 207.013C295.496 206.501 295.606 205.951 295.604 205.395V4.26398C295.603 3.13265 295.153 2.04809 294.354 1.24857C293.554 0.449055 292.471 -2.40389e-05 291.341 9.65112e-10Z" fill="white" fill-opacity="0.31"/>
<path d="M294.993 17.0918H81.6069V18.3107H294.993V17.0918Z" fill="white" fill-opacity="0.31"/>
<path d="M91.9543 12.8006C93.9713 12.8006 95.6064 11.1633 95.6064 9.14369C95.6064 7.12405 93.9713 5.48682 91.9543 5.48682C89.9373 5.48682 88.3022 7.12405 88.3022 9.14369C88.3022 11.1633 89.9373 12.8006 91.9543 12.8006Z" fill="white" fill-opacity="0.31"/>
<path d="M102.454 12.8006C104.471 12.8006 106.106 11.1633 106.106 9.14369C106.106 7.12405 104.471 5.48682 102.454 5.48682C100.437 5.48682 98.8022 7.12405 98.8022 9.14369C98.8022 11.1633 100.437 12.8006 102.454 12.8006Z" fill="white" fill-opacity="0.31"/>
<path d="M112.954 12.8006C114.971 12.8006 116.606 11.1633 116.606 9.14369C116.606 7.12405 114.971 5.48682 112.954 5.48682C110.937 5.48682 109.302 7.12405 109.302 9.14369C109.302 11.1633 110.937 12.8006 112.954 12.8006Z" fill="white" fill-opacity="0.31"/>
<path d="M239.822 45.3079H136.781C135.097 45.3079 133.483 44.6382 132.292 43.4461C131.101 42.2539 130.433 40.637 130.433 38.9511C130.433 37.2651 131.101 35.6483 132.292 34.4561C133.483 33.264 135.097 32.5942 136.781 32.5942H239.822C241.506 32.5942 243.121 33.264 244.311 34.4561C245.502 35.6483 246.171 37.2651 246.171 38.9511C246.171 40.637 245.502 42.2539 244.311 43.4461C243.121 44.6382 241.506 45.3079 239.822 45.3079V45.3079ZM136.781 33.5722C135.356 33.5722 133.99 34.1389 132.983 35.1476C131.975 36.1564 131.409 37.5245 131.409 38.9511C131.409 40.3777 131.975 41.7458 132.983 42.7545C133.99 43.7633 135.356 44.33 136.781 44.33H239.822C241.247 44.33 242.613 43.7633 243.621 42.7545C244.628 41.7458 245.194 40.3777 245.194 38.9511C245.194 37.5245 244.628 36.1564 243.621 35.1476C242.613 34.1389 241.247 33.5722 239.822 33.5722H136.781Z" fill="white" fill-opacity="0.31"/>
<path d="M265.948 134.105H110.654C108.453 134.103 106.343 133.226 104.786 131.668C103.23 130.109 102.355 127.996 102.352 125.792V75.9153C102.355 73.7114 103.23 71.5985 104.786 70.0401C106.343 68.4816 108.453 67.605 110.654 67.6025H265.948C268.149 67.605 270.26 68.4816 271.816 70.0401C273.372 71.5985 274.248 73.7114 274.25 75.9153V125.792C274.248 127.996 273.372 130.109 271.816 131.668C270.26 133.226 268.149 134.103 265.948 134.105V134.105ZM110.654 68.5805C108.712 68.5827 106.85 69.3562 105.477 70.7313C104.103 72.1063 103.331 73.9707 103.329 75.9153V125.792C103.331 127.737 104.103 129.601 105.477 130.976C106.85 132.351 108.712 133.125 110.654 133.127H265.948C267.89 133.125 269.752 132.351 271.126 130.976C272.499 129.601 273.271 127.737 273.274 125.792V75.9153C273.271 73.9707 272.499 72.1063 271.126 70.7313C269.752 69.3562 267.89 68.5827 265.948 68.5805H110.654Z" fill="white" fill-opacity="0.31"/>
<path d="M208.667 98.1646H154.46C153.424 98.1646 152.43 97.7525 151.697 97.0189C150.965 96.2852 150.553 95.2902 150.553 94.2527C150.553 93.2152 150.965 92.2202 151.697 91.4866C152.43 90.753 153.424 90.3408 154.46 90.3408H208.667C209.703 90.3408 210.696 90.753 211.429 91.4866C212.162 92.2202 212.573 93.2152 212.573 94.2527C212.573 95.2902 212.162 96.2852 211.429 97.0189C210.696 97.7525 209.703 98.1646 208.667 98.1646Z" fill="#F9CA23"/>
<path d="M258.966 111.367H154.46C153.424 111.367 152.43 110.955 151.697 110.221C150.965 109.488 150.553 108.493 150.553 107.455C150.553 106.418 150.965 105.423 151.697 104.689C152.43 103.956 153.424 103.543 154.46 103.543H258.966C260.002 103.543 260.996 103.956 261.729 104.689C262.461 105.423 262.873 106.418 262.873 107.455C262.873 108.493 262.461 109.488 261.729 110.221C260.996 110.955 260.002 111.367 258.966 111.367Z" fill="#F9CA23"/>
<path d="M128.381 115.523C136.473 115.523 143.032 108.956 143.032 100.854C143.032 92.7519 136.473 86.1841 128.381 86.1841C120.29 86.1841 113.731 92.7519 113.731 100.854C113.731 108.956 120.29 115.523 128.381 115.523Z" fill="#F9CA23"/>
<path d="M258.96 127.259H245.287C244.251 127.259 243.257 126.847 242.524 126.114C241.791 125.38 241.38 124.385 241.38 123.347C241.38 122.31 241.791 121.315 242.524 120.581C243.257 119.848 244.251 119.436 245.287 119.436H258.96C259.996 119.436 260.99 119.848 261.723 120.581C262.456 121.315 262.867 122.31 262.867 123.347C262.867 124.385 262.456 125.38 261.723 126.114C260.99 126.847 259.996 127.259 258.96 127.259Z" fill="white"/>
<path d="M258.96 127.259H245.287C244.251 127.259 243.257 126.847 242.524 126.114C241.791 125.38 241.38 124.385 241.38 123.347C241.38 122.31 241.791 121.315 242.524 120.581C243.257 119.848 244.251 119.436 245.287 119.436H258.96C259.996 119.436 260.99 119.848 261.723 120.581C262.456 121.315 262.867 122.31 262.867 123.347C262.867 124.385 262.456 125.38 261.723 126.114C260.99 126.847 259.996 127.259 258.96 127.259Z" fill="#CCCCCC"/>
<path d="M265.947 157.577H110.652C108.452 157.58 106.342 158.457 104.786 160.015C103.229 161.573 102.354 163.686 102.351 165.889V215.766C102.354 217.97 103.229 220.083 104.786 221.641C106.342 223.199 108.452 224.076 110.652 224.079H265.947C268.148 224.077 270.258 223.2 271.815 221.642C273.371 220.083 274.246 217.97 274.249 215.766V165.889C274.246 163.685 273.371 161.572 271.815 160.014C270.258 158.456 268.148 157.579 265.947 157.577ZM273.272 215.766C273.271 217.711 272.498 219.576 271.125 220.951C269.751 222.326 267.889 223.1 265.947 223.101H110.652C108.71 223.099 106.849 222.325 105.475 220.95C104.102 219.575 103.33 217.711 103.327 215.766V165.889C103.33 163.945 104.102 162.081 105.475 160.706C106.849 159.331 108.71 158.557 110.652 158.555H265.947C267.889 158.556 269.751 159.329 271.125 160.705C272.498 162.08 273.271 163.945 273.272 165.889V215.766Z" fill="white" fill-opacity="0.31"/>
<path d="M208.667 188.139H154.46C153.424 188.139 152.43 187.727 151.697 186.993C150.965 186.259 150.553 185.264 150.553 184.227C150.553 183.189 150.965 182.194 151.697 181.461C152.43 180.727 153.424 180.315 154.46 180.315H208.667C209.703 180.315 210.696 180.727 211.429 181.461C212.162 182.194 212.573 183.189 212.573 184.227C212.573 185.264 212.162 186.259 211.429 186.993C210.696 187.727 209.703 188.139 208.667 188.139Z" fill="#F9CA23"/>
<path d="M258.966 201.341H154.46C153.424 201.341 152.43 200.929 151.697 200.196C150.965 199.462 150.553 198.467 150.553 197.429C150.553 196.392 150.965 195.397 151.697 194.663C152.43 193.93 153.424 193.518 154.46 193.518H258.966C260.002 193.518 260.996 193.93 261.729 194.663C262.461 195.397 262.873 196.392 262.873 197.429C262.873 198.467 262.461 199.462 261.729 200.196C260.996 200.929 260.002 201.341 258.966 201.341Z" fill="#F9CA23"/>
<path d="M128.381 205.498C136.473 205.498 143.032 198.93 143.032 190.828C143.032 182.726 136.473 176.158 128.381 176.158C120.29 176.158 113.731 182.726 113.731 190.828C113.731 198.93 120.29 205.498 128.381 205.498Z" fill="#F9CA23"/>
<path d="M258.96 217.233H245.287C244.251 217.233 243.257 216.821 242.524 216.088C241.791 215.354 241.38 214.359 241.38 213.322C241.38 212.284 241.791 211.289 242.524 210.555C243.257 209.822 244.251 209.41 245.287 209.41H258.96C259.996 209.41 260.99 209.822 261.723 210.555C262.456 211.289 262.867 212.284 262.867 213.322C262.867 214.359 262.456 215.354 261.723 216.088C260.99 216.821 259.996 217.233 258.96 217.233Z" fill="#CCCCCC"/>
<path fill-rule="evenodd" clip-rule="evenodd" d="M49.5669 59.3848C47.6264 57.107 46.313 54.3155 46.5324 51.1876C47.1648 42.1751 59.7104 44.1578 62.1508 48.7065C64.5912 53.2552 64.3012 64.7933 61.1472 65.6063C59.8894 65.9305 57.2099 65.1363 54.4828 63.4926L56.1946 75.6025H46.0874L49.5669 59.3848Z" fill="#B28B67"/>
<path fill-rule="evenodd" clip-rule="evenodd" d="M54.9881 52.1833C55.375 57.5726 56.3984 60.2673 58.0584 60.2673C60.5484 60.2673 62.6611 58.6865 63.7537 58.6865C64.5501 58.6865 64.3723 59.6832 63.8444 60.4222C63.4088 61.0318 61.2877 61.6195 61.2877 62.5647C61.2877 63.5099 62.9635 62.7787 62.9635 63.3392C62.9635 64.2665 63.2581 66.01 61.6487 66.01C60.0199 66.01 55.35 65.4164 54.5497 62.9991C54.0333 61.439 53.6993 58.2062 53.5479 53.3007C53.4491 53.2889 53.3485 53.2829 53.2466 53.2829C51.8511 53.2829 50.7198 54.4142 50.7198 55.8097C50.7198 56.5181 51.0113 57.1585 51.481 57.6173C50.8963 58.4425 50.2411 59.3046 49.4902 60.1942C46.6695 58.5019 44.5764 53.5478 47.3341 48.7887C48.0963 46.4573 49.8219 45.212 51.8599 44.6338C53.5108 43.9432 55.2246 43.8653 56.6713 44.2793C59.5071 44.5226 62.0394 45.3873 62.7571 45.9009C62.7571 48.5857 62.2369 49.3822 57.7935 49.312C56.7017 49.8886 55.8623 50.8816 54.9881 52.1833Z" fill="#191847"/>
<path opacity="0.3" fill-rule="evenodd" clip-rule="evenodd" d="M42.7178 110.557L57.9859 164.136L69.1257 203.627H77.2506L65.413 110.557H42.7178Z" fill="#DDE3E9"/>
<path opacity="0.3" fill-rule="evenodd" clip-rule="evenodd" d="M38.6342 110.557C38.2811 138.172 37.0768 153.234 36.706 155.743C36.3352 158.252 30.7286 174.213 19.8862 203.627H28.3031C42.1063 175.41 49.8116 159.449 51.419 155.743C53.0264 152.038 57.987 136.976 65.4585 110.557H38.6342Z" fill="#DDE3E9"/>
<path fill-rule="evenodd" clip-rule="evenodd" d="M19.1343 211.207L19.5554 202.363H28.3992C32.5927 205.311 38.0674 207.698 44.8234 209.523V211.207H28.8203L23.3456 210.365V211.207H19.1343Z" fill="#191847"/>
<path fill-rule="evenodd" clip-rule="evenodd" d="M67.9858 211.207L68.407 202.363H77.2508C81.4442 205.311 86.919 207.698 93.6749 209.523V211.207H77.6719L72.1972 210.365V211.207H67.9858Z" fill="#191847"/>
<path fill-rule="evenodd" clip-rule="evenodd" d="M78.2443 103.655L90.9568 114.432C94.5228 115.667 97.474 117.1 99.8105 118.73C100.35 119.295 100.972 120.407 98.5956 120.056C96.2195 119.705 93.7045 119.443 93.3179 120.235C92.9313 121.027 94.3088 122.102 93.5656 123.155C93.0701 123.857 91.1 121.872 87.6553 117.201L74.7699 110.771L78.2443 103.655ZM20.6789 98.9912L28.1379 100.074C20.1313 117.446 15.8389 126.633 15.2607 127.636C13.9596 129.892 15.4897 133.821 16.0879 135.901C13.0649 136.774 14.0303 132.103 10.2079 133.268C6.71889 134.331 3.83974 136.742 0.384243 133.875C-0.0405912 133.523 -0.398462 132.371 0.951855 131.699C4.31599 130.027 9.25531 126.966 10.0231 125.838C11.0701 124.299 14.6221 115.35 20.6789 98.9912Z" fill="#B28B67"/>
<path fill-rule="evenodd" clip-rule="evenodd" d="M51.8542 68.5842L56.4761 67.0557C62.7457 82.7177 72.0961 97.8715 87.7187 110.671L83.8554 117.336C70.1254 109.249 57.1282 102.966 51.8542 90.8295C50.084 86.7563 51.7097 73.4545 51.8542 68.5842Z" fill="#C5CFD6"/>
<path fill-rule="evenodd" clip-rule="evenodd" d="M35.9795 112.663C49.2192 114.067 59.6403 114.067 67.2428 112.663C68.1847 112.489 68.3333 110.912 67.8965 109.842C61.0943 93.1746 56.4298 78.6317 56.4298 67.0552C55.1817 67.6844 52.9974 67.7787 49.8769 67.3381C41.4905 79.268 37.6356 92.9563 35.9795 112.663Z" fill="#F9CA23"/>
<path fill-rule="evenodd" clip-rule="evenodd" d="M47.7921 66.3385H51.2871C52.1008 71.1247 54.6675 135.936 62.5912 157.137H19.7176C20.6471 137.715 27.9792 114.384 35.4067 94.8612C28.839 100.871 23.1147 111.055 18.2338 125.412L10.2031 123.351C16.1742 97.6207 28.4507 78.7093 47.0327 66.6161C47.073 66.5231 47.113 66.4306 47.1529 66.3385H47.4622C47.576 66.2655 47.6901 66.1927 47.8044 66.1201L47.7921 66.3385V66.3385Z" fill="#DDE3E9"/>
</svg>
