<svg xmlns="http://www.w3.org/2000/svg" width="36" height="36" fill="none" viewBox="0 0 36 36"><path fill="#F9CA23" d="M31.3723 4.6272C29.6792 2.93306 27.4268 2 25.0313 2C22.6355 2 20.3839 2.93306 18.69 4.6272L10.6585 12.6585L2.62668 20.6908C0.93306 22.3849 0 24.6373 0 27.0323C0 29.4273 0.93306 31.6797 2.62668 33.3728C4.31978 35.0669 6.57214 36 8.9677 36C11.3633 36 13.6151 35.0669 15.3087 33.3728L23.3405 25.3415L31.3723 17.3092C33.0659 15.6151 33.9987 13.3627 33.9987 10.9677C33.9987 8.57266 33.0659 6.3203 31.3723 4.6272ZM13.618 31.682C12.3754 32.9243 10.7238 33.6089 8.9677 33.6089C7.21078 33.6089 5.55971 32.9246 4.31744 31.682C3.07518 30.4395 2.3914 28.7887 2.3914 27.0326C2.3914 25.2764 3.0757 23.6241 4.31744 22.3818L11.5038 15.1949L20.8044 24.4964L13.618 31.682ZM29.6815 15.6185L22.4951 22.8054L13.1946 13.5038L20.381 6.31796C21.6233 5.0757 23.2749 4.39114 25.0313 4.39114C26.7879 4.39114 28.439 5.07544 29.6813 6.31796C30.9235 7.56049 31.6073 9.2113 31.6073 10.9674C31.6073 12.7236 30.9233 14.3759 29.6815 15.6185Z"/><path fill="#F9CA23" d="M28.2288 10.0624C27.8475 10.0624 27.4727 9.88031 27.241 9.54283C26.6815 8.72546 25.7585 8.23857 24.7713 8.23857C23.9726 8.23857 23.2224 8.54907 22.6572 9.1143C22.19 9.58122 21.4333 9.58122 20.9664 9.1143C20.4995 8.64713 20.4995 7.89046 20.9664 7.42354C21.983 6.40643 23.3339 5.84717 24.7713 5.84717C26.5479 5.84717 28.2088 6.7229 29.2143 8.19084C29.5873 8.73584 29.4485 9.4798 28.9032 9.85359C28.697 9.99471 28.4617 10.0624 28.2288 10.0624Z"/></svg>