<svg width="47" height="47" viewBox="0 0 47 47" fill="none" xmlns="http://www.w3.org/2000/svg">
<g clip-path="url(#clip0)">
<path d="M1.38232 8.29412H4.14703V34.5588C4.14703 39.1322 7.86777 42.8529 12.4411 42.8529C17.0145 42.8529 20.7353 39.1322 20.7353 34.5588V33.1765V16.5882V8.29412H23.5V0H1.38232V8.29412ZM17.9706 30.4118H13.8235V19.3529H17.9706V30.4118ZM11.0588 16.5882V33.1765H17.9706V34.5588C17.9706 37.6077 15.4901 40.0882 12.4411 40.0882C9.39223 40.0882 6.91174 37.6077 6.91174 34.5588V13.8235H17.9706V16.5882H11.0588ZM17.9706 11.0588H6.91174V8.29412H17.9706V11.0588ZM11.0588 5.52941V2.76471H13.8235V5.52941H11.0588ZM20.7353 5.52941H16.5882V2.76471H20.7353V5.52941ZM4.14703 2.76471H8.29409V5.52941H4.14703V2.76471Z" fill="#F9CA23"/>
<path d="M34.9899 28.0544C33.9218 26.5692 32.8673 25.3907 32.8229 25.3413L31.7941 24.1948L30.7652 25.3413C30.7209 25.3908 29.6663 26.5693 28.5982 28.0544C27.028 30.238 26.2646 31.9133 26.2646 33.1763C26.2646 36.2253 28.7451 38.7058 31.7941 38.7058C34.843 38.7058 37.3235 36.2253 37.3235 33.1763C37.3235 31.9133 36.5602 30.238 34.9899 28.0544ZM31.7941 35.941C30.2696 35.941 29.0294 34.7008 29.0294 33.1763C29.0294 32.2953 30.3283 30.2378 31.7935 28.4057C33.2626 30.2478 34.5588 32.32 34.5588 33.1763C34.5588 34.7008 33.3185 35.941 31.7941 35.941Z" fill="#F9CA23"/>
<path d="M42.1538 36.4004L41.125 35.2539L40.0961 36.4004C39.2836 37.306 36.6323 40.4224 36.6323 42.5075C36.6323 44.9848 38.6477 47.0001 41.125 47.0001C43.6022 47.0001 45.6176 44.9848 45.6176 42.5075C45.6176 40.4224 42.9664 37.306 42.1538 36.4004ZM41.125 44.2354C40.1722 44.2354 39.397 43.4603 39.397 42.5075C39.397 42.0412 40.1418 40.7747 41.1255 39.4904C42.1088 40.7735 42.8529 42.0393 42.8529 42.5075C42.8529 43.4603 42.0778 44.2354 41.125 44.2354Z" fill="#F9CA23"/>
</g>
<defs>
<clipPath id="clip0">
<rect width="47" height="47" fill="white"/>
</clipPath>
</defs>
</svg>
