<svg width="30" height="30" viewBox="0 0 30 30" fill="none" xmlns="http://www.w3.org/2000/svg">
<path d="M15 0C6.72867 0 0 6.72867 0 15C0 23.2713 6.72867 30 15 30C23.2713 30 30 23.2713 30 15C30 6.72867 23.2713 0 15 0ZM21.5625 16.2499H16.2499V21.5625C16.2499 22.2526 15.6901 22.8124 15 22.8124C14.3099 22.8124 13.7501 22.2526 13.7501 21.5625V16.2499H8.4375C7.74742 16.2499 7.18758 15.6901 7.18758 15C7.18758 14.3099 7.74742 13.7501 8.4375 13.7501H13.7501V8.4375C13.7501 7.74742 14.3099 7.18758 15 7.18758C15.6901 7.18758 16.2499 7.74742 16.2499 8.4375V13.7501H21.5625C22.2526 13.7501 22.8124 14.3099 22.8124 15C22.8124 15.6901 22.2526 16.2499 21.5625 16.2499Z" fill="#F9CA23"/>
</svg>
