<svg width="205" height="189" viewBox="0 0 205 189" fill="none" xmlns="http://www.w3.org/2000/svg">
<path d="M6.44217 0.547852C7.46982 2.28275 8.87416 3.71478 10.5309 4.71716C12.1056 5.64275 13.8544 6.16163 15.6424 6.23376C23.9362 6.71411 55.5464 3.90489 69.8161 8.31707C86.3468 13.4282 100.872 34.8171 101.124 56.2844C101.31 72.179 93.6822 88.5918 83.2809 97.7508C82.6519 98.304 82.1491 98.7088 81.8173 98.9813C70.8587 107.949 59.3405 109.406 47.9708 110.855C38.6466 112.043 29.2169 111.827 19.9466 110.216C21.2071 115.578 23.9734 123.417 30.8036 131.675C30.8036 131.675 31.0513 131.974 31.3534 132.33C37.6091 139.662 50.0857 150.559 67.4312 155.171C76.099 157.473 82.9317 157.406 86.3592 157.381C105.981 157.238 131.303 157.6 164.706 158.391C166.472 158.678 168.094 159.614 169.305 161.043C170.442 162.413 171.157 164.136 171.348 165.971C171.066 173.424 170.782 180.877 170.496 188.329C169.591 185.565 168.073 183.088 166.078 181.118C164.404 179.483 162.429 178.256 160.286 177.518L78.0034 176.382C53.6519 176.045 26.0462 162.139 10.3699 133.744C0.637228 116.12 -0.279088 97.6779 0.0552409 86.8485C9.05488 90.5429 23.5573 94.9443 41.3956 93.6705C55.4078 92.6721 61.0592 90.7426 63.8824 89.1234C66.1855 87.8011 80.0119 79.5974 82.7361 63.101C83.6138 57.5762 83.2233 51.9007 81.5993 46.5803C80.9728 44.5455 78.8752 37.9934 73.6497 32.9659C66.2871 25.8929 56.8268 25.8039 46.6186 25.7121C40.618 25.6555 20.4493 26.1412 19.59 26.2168C17.9332 26.3625 13.7702 26.4677 9.75575 23.5803C8.35511 22.5755 7.11804 21.3233 6.09546 19.8751L6.44217 0.547852Z" fill="#F9CB25"/>
<path d="M186.71 90.4285C193.459 90.4285 204.167 85.6169 204.167 72.7042C204.167 67.3987 201.871 62.9353 197.334 59.4001C201.871 55.865 204.167 51.4015 204.167 46.0961C204.167 33.1807 193.459 28.3691 186.71 28.3691C175.07 28.3691 167.797 38.2648 157.188 51.7847C155.63 53.7709 154.018 55.8326 152.274 58.0158C151.967 58.3995 151.798 58.8912 151.798 59.4001C151.798 59.9091 151.967 60.4008 152.274 60.7845C154.008 62.9758 155.63 65.0294 157.188 67.0155C168.295 81.1696 175.321 90.4285 186.71 90.4285ZM156.303 59.3947C157.641 57.7054 158.904 56.0944 160.135 54.5373C171.234 40.394 177.349 32.6032 186.71 32.6032C193.062 32.6032 200.286 37.1287 200.286 46.0961C200.286 50.7782 197.81 54.5238 192.745 57.5462C192.439 57.7275 192.184 57.9955 192.006 58.3217C191.828 58.648 191.734 59.0206 191.734 59.4001C191.734 59.7797 191.828 60.1523 192.006 60.4786C192.184 60.8048 192.439 61.0727 192.745 61.2541C197.82 64.2765 200.286 68.0221 200.286 72.7042C200.286 81.5501 193.169 86.1971 186.71 86.1971C177.349 86.1971 171.234 78.4063 160.135 64.263C158.896 62.6951 157.641 61.0841 156.303 59.4055V59.3947Z" fill="#F9CB25"/>
<path d="M98.0211 93.3463C103.579 84.2186 107.208 73.8607 108.648 63.0196C111.296 62.4726 114.014 62.4726 116.662 63.0196C123.413 64.4282 127.596 69.0374 129.091 70.8698C123.497 75.5707 121.3 83.0134 123.413 88.9368C125.146 93.8158 129.243 96.0179 130.454 96.6116C126.607 99.1777 122.237 100.666 117.734 100.943C107.179 101.539 99.8092 95.0221 98.0211 93.3463Z" fill="#F9CB25"/>
<path d="M154.121 58.371L178.295 32.5995L188.035 30.6484L197.802 35.1038L202.119 47.3931L200.286 53.9156L193.488 59.4018L200.286 66.7852L202.119 74.4599L198.711 83.1224L193.941 86.2042L184.771 88.9999L175.127 85.1031L154.121 58.371Z" fill="#F9CB25"/>
<path d="M178.213 94.3241C169.679 92.4513 150.439 100.474 141.905 98.6013C133.371 96.7285 125.087 87.5048 125.087 87.5048C125.087 87.5048 136.152 92.3622 142.789 93.8086C149.426 95.2551 151.779 93.2123 152.398 89.8687C153.901 81.7325 141.454 77.6873 135.233 75.2127C129.641 70.0098 126.927 66.2696 116.674 63.0205C116.497 63.6777 116.265 64.3162 115.983 64.9284L101.33 95.9621C110.146 102.903 125.456 114.191 134.228 116.115C147.029 118.924 184.597 107.814 185.457 103.162C186.316 98.5096 182.465 95.2578 178.213 94.3241Z" fill="#F9CB25"/>
<path d="M100.156 24.3084C105.712 33.4329 109.341 43.787 110.782 54.6243C113.429 55.1713 116.147 55.1713 118.794 54.6243C125.547 53.2157 129.728 48.6065 131.226 46.7741C125.632 42.0705 123.432 34.6305 125.547 28.6936C127.281 23.8173 131.377 21.6153 132.588 21.0216C128.445 18.67 123.858 17.3988 119.188 17.3083C109.366 17.1707 102.432 22.4221 100.156 24.3084Z" fill="#F9CB25"/>
<path d="M100.156 24.3085C105.712 33.433 109.341 43.787 110.782 54.6244C113.429 55.1713 116.147 55.1713 118.794 54.6244C125.547 53.2157 129.728 48.6065 131.226 46.7742C125.632 42.0706 123.432 34.6306 125.547 28.6937C127.281 23.8173 131.377 21.6153 132.588 21.0216C128.741 18.456 124.372 16.968 119.869 16.6904C109.314 16.1129 101.936 22.6327 100.156 24.3085Z" fill="#F9CB25"/>
<path d="M180.333 23.3207C171.801 25.1935 152.559 17.1706 144.025 19.0435C135.491 20.9163 127.197 30.1481 127.197 30.1481C127.197 30.1481 138.262 25.2907 144.902 23.8469C151.541 22.4032 153.891 24.4433 154.508 27.7869C156.011 35.9231 143.564 39.9683 137.346 42.4402C131.754 47.6457 129.039 51.386 118.772 54.6351C118.595 53.978 118.365 53.3395 118.083 52.7272L103.452 21.7016C112.269 14.7581 127.578 3.47264 136.35 1.54585C149.149 -1.26067 186.72 9.84669 187.579 14.499C188.439 19.1514 184.6 22.3951 180.333 23.3207Z" fill="#F9CB25"/>
</svg>
